<?xml version="1.0" encoding="UTF-8"?>
<svg width="25px" height="30px" viewBox="0 0 25 30" version="1.1" xmlns="http://www.w3.org/2000/svg" xmlns:xlink="http://www.w3.org/1999/xlink">
    <g id="1440*900-v2" stroke="none" stroke-width="1" fill="none" fill-rule="evenodd">
        <g transform="translate(-60.000000, -32.000000)" fill="currentColor">
            <g id="top" transform="translate(60.000000, 27.000000)">
                <g id="icon-dark" transform="translate(0.000000, 5.000000)">
                    <path d="M14.2421028,0.771930648 C14.8550825,0.642027091 15.5172703,0.802431816 16.0100686,1.25441379 L16.0100686,1.25441379 L17.803,2.89834912 L17.803,29.3673491 L15.0425673,29.9199899 C14.8313079,29.9622267 14.6149653,29.9699838 14.4018913,29.9432941 L14.2428291,29.9168186 Z M10.681,3.71834912 L10.681,29.1753491 L7.121,28.4333491 L7.121,7.06034912 L10.681,3.71834912 Z M21.363,6.16434912 L24.3518558,8.90528683 C24.6282226,9.1587634 24.8249418,9.48204892 24.9248593,9.83613399 L24.9262683,26.8284257 C24.7275579,27.5389461 24.1446916,28.1002106 23.3920985,28.2506758 L23.3920985,28.2506758 L21.363,28.6563491 L21.363,6.16434912 Z M3.56,10.4033491 L3.56,27.6923491 L1.59236038,27.2831169 C0.719357098,27.1013663 0.0791203493,26.3665652 0.00681915148,25.4908478 L0,25.3251001 L0,14.6116478 C-2.28808867e-15,14.0593039 0.228425604,13.5315515 0.63112339,13.1535062 L0.63112339,13.1535062 L3.56,10.4033491 Z" id="Combined-Shape"></path>
                </g>
            </g>
        </g>
    </g>
</svg>