<svg xmlns="http://www.w3.org/2000/svg" xmlns:xlink="http://www.w3.org/1999/xlink" width="24px" height="24px" viewBox="0 0 340 300">
	<title>Combined Shape</title>
	<g id="Page-1" stroke="none" stroke-width="1" fill="none" fill-rule="evenodd">
		<g id="dapp_radar" transform="translate(-80.000000, -100.000000)" fill="currentColor" fill-rule="nonzero">
			<g id="Group-23" transform="translate(80.000000, 100.000000)">
				<path d="M265.636342,15.2495671 L335.045076,134.750433 C340.525982,144.186898 340.525982,155.813102 335.045076,165.249567 L265.636342,284.750433 C260.155435,294.186898 250.026302,300 239.064489,300 L100.247022,300 C89.2852088,300 79.1560757,294.186898 73.6751692,284.750433 L4.26643555,165.249567 C-1.21447104,155.813102 -1.21447104,144.186898 4.26643555,134.750433 L73.6751692,15.2495671 C79.1560757,5.81310214 89.2852088,0 100.247022,0 L239.064489,0 C250.026302,0 260.155435,5.81310214 265.636342,15.2495671 Z M98.3912337,225.848532 C99.7430003,227.142911 101.129305,228.401511 102.548626,229.622811 L102.558255,229.613103 L167.906056,170.773679 C168.915756,170.922771 169.948859,171 171,171 C182.59798,171 192,161.59798 192,150 C192,138.40202 182.59798,129 171,129 C159.40202,129 150,138.40202 150,150 C150,152.459132 150.422688,154.819541 151.199375,157.012534 L134.977066,171.619167 C131.129479,165.217931 129,157.793144 129,150 C129,126.804041 147.804041,108 171,108 C194.195959,108 213,126.804041 213,150 C213,173.195959 194.195959,192 171,192 L171,213 C205.793939,213 234,184.793939 234,150 C234,115.206061 205.793939,87 171,87 C136.206061,87 108,115.206061 108,150 C108,163.315902 112.131202,175.666911 119.181836,185.841255 L103.474386,199.984307 C92.9150135,185.752116 87,168.369028 87,150 C87,103.608081 124.608081,66 171,66 C217.391919,66 255,103.608081 255,150 C255,196.391919 217.391919,234 171,234 L171,255 C228.989899,255 276,207.989899 276,150 C276,92.0101013 228.989899,45 171,45 C113.010101,45 66,92.0101013 66,150 C66,174.126306 74.137072,196.352098 87.8165386,214.082696 L87.8097004,214.088854 C87.9604529,214.27885 88.111784,214.468616 88.2636937,214.658153 C89.9285433,216.785482 91.6736558,218.846971 93.4944748,220.838065 C93.6498666,221.012156 93.8057738,221.186043 93.9621963,221.359725 C95.2002357,222.734368 96.6765815,224.230637 98.3912337,225.848532 L98.3912337,225.848532 Z" id="Combined-Shape"></path>
			</g>
		</g>
	</g>
</svg>