<svg xmlns="http://www.w3.org/2000/svg" xmlns:xlink="http://www.w3.org/1999/xlink" width="16px" height="16px" viewBox="0 0 826 932">
	<title>Dextools</title>
	<g id="Page-1" stroke="none" stroke-width="1" fill="none" fill-rule="evenodd">
		<g id="Dextools" transform="translate(0.465647, 0.500000)" fill="currentColor">
			<polygon id="Path-2" points="412.034353 0 631.034353 113 481.277068 181.81963 412.034353 146.080005 342.806782 181.81963 201.309697 107.629552"></polygon>
			<polygon id="Path-3" points="406.904976 290.391819 123.9129 146.52322 8.86906938e-13 209.286432 9.09494702e-13 469 123.9129 414.03571 123.9129 275.735741 270.012544 352.122682"></polygon>
			<polygon id="Path-4" points="105.580549 780.228206 0 728.16898 0 575.257919 667.648737 278.580858 565.886542 220.688126 715.354847 154.137805 825.259564 209.704058 825.259564 362.815457 154.481131 658.487045 249.619829 713.691086"></polygon>
			<polygon id="Path-5" points="201.713211 824.074782 344.043533 760.468107 412.629782 796.083447 499.259193 760.468107 630.452624 824.074782 412.629782 930.760267"></polygon>
			<polygon id="Path-6" points="416.534353 641.924934 702.884708 786.181614 825.259564 724.071624 825.259564 462.190593 698.74177 516.548778 698.74177 657.506233 554.908736 581.355857"></polygon>
		</g>
	</g>
</svg>