<svg xmlns="http://www.w3.org/2000/svg" xmlns:xlink="http://www.w3.org/1999/xlink" width="24px" height="24px" viewBox="0 0 21 20">
	<title>Path</title>
	<g id="Page-1" stroke="none" stroke-width="1" fill="none" fill-rule="evenodd">
		<g id="live" transform="translate(-99.000000, 0.000000)" fill="currentColor">
			<path d="M116.9,3 C116,2.1 115,1.4 113.8,0.9 C112.6,0.4 111.2,0.1 109.8,0.1 C108.3,0.1 107,0.4 105.8,0.9 C104.6,1.4 103.5,2.1 102.6,3 C101.7,3.9 101,5 100.5,6.2 C100,7.4 99.8,8.7 99.8,10 C99.8,11.3 100,12.6 100.5,13.8 C101,15 101.6,16 102.5,16.8 L105.3,11.7 L108.1,14.5 L111.2,7.1 L109.9,6.5 L111.7,5.2 L113.5,3.9 L113.8,6.1 L114.1,8.3 L112.8,7.7 L108.8,17.2 L105.8,14.3 L103.9,17.9 C104.5,18.4 105.2,18.7 105.9,19 C107.1,19.5 108.5,19.8 109.9,19.8 C111.4,19.8 112.7,19.5 113.9,19 C116.3,18 118.2,16.1 119.1,13.7 C119.6,12.5 119.8,11.2 119.8,9.9 C119.8,8.6 119.6,7.3 119.1,6.1 C118.4,4.9 117.7,3.9 116.9,3 L116.9,3 Z" id="Path"></path>
		</g>
	</g>
</svg>