<?xml version="1.0" encoding="UTF-8"?>
<svg width="2px" height="496px" viewBox="0 0 2 496" version="1.1" xmlns="http://www.w3.org/2000/svg" xmlns:xlink="http://www.w3.org/1999/xlink">
    <title>lines</title>
    <g id="1440*900-v2" stroke="none" stroke-width="1" fill="none" fill-rule="evenodd">
        <path d="M1,0 C1.55228475,-1.01453063e-16 2,0.44771525 2,1 L2,15 C2,15.5522847 1.55228475,16 1,16 C0.44771525,16 6.76353751e-17,15.5522847 0,15 L0,1 C-6.76353751e-17,0.44771525 0.44771525,1.01453063e-16 1,0 Z M0,32 L2,32 L2,48 L0,48 L0,32 Z M0,64 L2,64 L2,80 L0,80 L0,64 Z M0,96 L2,96 L2,112 L0,112 L0,96 Z M0,128 L2,128 L2,144 L0,144 L0,128 Z M0,160 L2,160 L2,176 L0,176 L0,160 Z M0,192 L2,192 L2,208 L0,208 L0,192 Z M0,224 L2,224 L2,240 L0,240 L0,224 Z M0,256 L2,256 L2,272 L0,272 L0,256 Z M0,288 L2,288 L2,304 L0,304 L0,288 Z M0,320 L2,320 L2,336 L0,336 L0,320 Z M0,352 L2,352 L2,368 L0,368 L0,352 Z M0,384 L2,384 L2,400 L0,400 L0,384 Z M0,416 L2,416 L2,432 L0,432 L0,416 Z M0,448 L2,448 L2,464 L0,464 L0,448 Z M0,480 L2,480 L2,496 L0,496 L0,480 Z" id="lines" fill="#7C32DB"></path>
    </g>
</svg>